<svg width="24" height="24" viewBox="0 0 24 24" fill="none" xmlns="http://www.w3.org/2000/svg">
<path d="M5.33488 20H4.00488C2.90488 20 2.00488 19.1 2.00488 18V6C2.00488 4.9 2.90488 4 4.00488 4H5.33488C6.43488 4 7.33488 4.9 7.33488 6V18C7.33488 19.1 6.44488 20 5.33488 20Z" fill="#257A29"/>
<path d="M12.665 20H11.335C10.235 20 9.33496 19.1 9.33496 18V6C9.33496 4.9 10.235 4 11.335 4H12.665C13.765 4 14.665 4.9 14.665 6V18C14.665 19.1 13.775 20 12.665 20Z" fill="#A0A0A0"/>
<path d="M19.995 20H18.665C17.565 20 16.665 19.1 16.665 18V6C16.665 4.9 17.565 4 18.665 4H19.995C21.095 4 21.995 4.9 21.995 6V18C21.995 19.1 21.105 20 19.995 20Z" fill="#A0A0A0"/>
</svg>
